<svg xmlns="http://www.w3.org/2000/svg" width="512" height="512"><rect id="backgroundrect" fill="none" stroke="none" x="0" y="0" width="100%" height="100%" /><g class="currentLayer" style=""><title>Layer 1</title><path class="selected" id="svg_1" fill="#3b5998" fill-opacity="1" stroke="#91b9e0" stroke-opacity="1" d="M 426.8 64 H 85.2 C 73.5 64 64 73.5 64 85.2 v 341.6 c 0 11.7 9.5 21.2 21.2 21.2 H 256 V 296 h -45.9 v -56 H 256 v -41.4 c 0 -49.6 34.4 -76.6 78.7 -76.6 c 21.2 0 44 1.6 49.3 2.3 v 51.8 h -35.3 c -24.1 0 -28.7 11.4 -28.7 28.2 V 240 h 57.4 l -7.5 56 H 320 v 152 h 106.8 c 11.7 0 21.2 -9.5 21.2 -21.2 V 85.2 c 0 -11.7 -9.5 -21.2 -21.2 -21.2 Z" /></g></svg>