<svg width="512" height="512" xmlns="http://www.w3.org/2000/svg">

 <g class="currentLayer">
  <title>Layer 1</title>
  <rect rx="100" height="326" width="359" y="91.27" x="81.5" stroke-width="null" stroke="#fbad50" fill="#cd486b" id="svg_3"/>
  <path d="m336,96c21.200012,0 41.299988,8.400002 56.5,23.5s23.5,35.300003 23.5,56.5l0,160c0,21.200012 -8.399994,41.299988 -23.5,56.5s-35.299988,23.5 -56.5,23.5l-160,0c-21.199997,0 -41.300003,-8.399994 -56.5,-23.5s-23.5,-35.299988 -23.5,-56.5l0,-160c0,-21.199997 8.400002,-41.300003 23.5,-56.5s35.300003,-23.5 56.5,-23.5l160,0m0,-32l-160,0c-61.599998,0 -112,50.400002 -112,112l0,160c0,61.600006 50.400002,112 112,112l160,0c61.600006,0 112,-50.399994 112,-112l0,-160c0,-61.599998 -50.399994,-112 -112,-112z" fill="#8a3ab9" id="svg_1"/>
  <path d="m360,176c-13.299988,0 -24,-10.699997 -24,-24s10.700012,-24 24,-24c13.200012,0 24,10.699997 24,24s-10.799988,24 -24,24zm-104,16c35.299988,0 64,28.699997 64,64s-28.700012,64 -64,64s-64,-28.700012 -64,-64s28.699997,-64 64,-64m0,-32c-53,0 -96,43 -96,96s43,96 96,96s96,-43 96,-96s-43,-96 -96,-96z" stroke="#fbad50" fill="#fbad50" id="svg_2"/>
  <ellipse ry="27" rx="27" cy="151.27" cx="361" stroke-width="null" stroke="#fbad50" fill="#ffffff" id="svg_8"/>
 </g>
 <g>
  <title>Layer 2</title>
  <rect height="100%" width="100%" y="0" x="0" fill="none" id="backgroundrect"/>
 </g>
 <g>
  <title>background</title>
  <rect height="514" width="514" y="-1" x="-1" fill="none" id="canvas_background"/>
 </g>
</svg>